<svg width="31" height="31" viewBox="0 0 31 31" fill="none" xmlns="http://www.w3.org/2000/svg">
<g clip-path="url(#clip0_61_512)">
<path d="M15.4483 1.33105C7.49534 1.33105 1.04834 7.77806 1.04834 15.7311C1.04834 23.6841 7.49534 30.1311 15.4483 30.1311C23.4013 30.1311 29.8483 23.6841 29.8483 15.7311C29.8483 7.77806 23.4013 1.33105 15.4483 1.33105ZM18.8593 11.2821H16.6948C16.4383 11.2821 16.1533 11.6196 16.1533 12.0681V13.6311H18.8608L18.4513 15.8601H16.1533V22.5516H13.5988V15.8601H11.2813V13.6311H13.5988V12.3201C13.5988 10.4391 14.9038 8.91056 16.6948 8.91056H18.8593V11.2821Z" fill="white"/>
</g>
<defs>
<clipPath id="clip0_61_512">
<rect width="30" height="30" fill="white" transform="translate(0.44873 0.731445)"/>
</clipPath>
</defs>
</svg>
