<svg width="31" height="31" viewBox="0 0 31 31" fill="none" xmlns="http://www.w3.org/2000/svg">
<g clip-path="url(#clip0_61_518)">
<path d="M20.4483 15.7311C20.4483 16.9245 19.9742 18.0691 19.1303 18.913C18.2864 19.757 17.1418 20.2311 15.9483 20.2311C14.7549 20.2311 13.6103 19.757 12.7664 18.913C11.9224 18.0691 11.4483 16.9245 11.4483 15.7311C11.4483 15.4746 11.4753 15.2241 11.5218 14.9811H9.94834V20.9766C9.94834 21.3936 10.2858 21.7311 10.7028 21.7311H21.1953C21.3952 21.7307 21.5867 21.651 21.7279 21.5095C21.8691 21.3681 21.9483 21.1764 21.9483 20.9766V14.9811H20.3748C20.4213 15.2241 20.4483 15.4746 20.4483 15.7311ZM15.9483 18.7311C16.3424 18.731 16.7326 18.6532 17.0966 18.5024C17.4607 18.3515 17.7914 18.1303 18.07 17.8516C18.3486 17.5729 18.5695 17.2421 18.7202 16.878C18.8709 16.5138 18.9484 16.1236 18.9483 15.7296C18.9482 15.3355 18.8705 14.9453 18.7196 14.5813C18.5687 14.2172 18.3476 13.8865 18.0689 13.6079C17.7902 13.3294 17.4593 13.1084 17.0952 12.9577C16.7311 12.807 16.3409 12.7295 15.9468 12.7296C15.151 12.7298 14.3878 13.0461 13.8252 13.609C13.2626 14.1719 12.9466 14.9352 12.9468 15.7311C12.947 16.5269 13.2634 17.2901 13.8263 17.8527C14.3892 18.4153 15.1525 18.7313 15.9483 18.7311ZM19.5483 12.5811H21.3468C21.4663 12.5811 21.5809 12.5337 21.6656 12.4493C21.7502 12.365 21.7979 12.2505 21.7983 12.1311V10.3326C21.7983 10.2128 21.7508 10.098 21.6661 10.0133C21.5814 9.92863 21.4666 9.88106 21.3468 9.88106H19.5483C19.4286 9.88106 19.3138 9.92863 19.2291 10.0133C19.1444 10.098 19.0968 10.2128 19.0968 10.3326V12.1311C19.0983 12.3786 19.3008 12.5811 19.5483 12.5811ZM15.9483 1.33105C12.1292 1.33105 8.46653 2.84819 5.766 5.54872C3.06548 8.24924 1.54834 11.9119 1.54834 15.7311C1.54834 19.5502 3.06548 23.2129 5.766 25.9134C8.46653 28.6139 12.1292 30.1311 15.9483 30.1311C17.8394 30.1311 19.7119 29.7586 21.459 29.0349C23.2061 28.3113 24.7935 27.2506 26.1307 25.9134C27.4678 24.5762 28.5285 22.9888 29.2522 21.2417C29.9759 19.4946 30.3483 17.6221 30.3483 15.7311C30.3483 13.84 29.9759 11.9675 29.2522 10.2204C28.5285 8.47333 27.4678 6.88588 26.1307 5.54872C24.7935 4.21155 23.2061 3.15086 21.459 2.42719C19.7119 1.70352 17.8394 1.33105 15.9483 1.33105ZM23.4483 21.5646C23.4483 22.4811 22.6983 23.2311 21.7818 23.2311H10.1148C9.19834 23.2311 8.44834 22.4811 8.44834 21.5646V9.89756C8.44834 8.98106 9.19834 8.23106 10.1148 8.23106H21.7818C22.6983 8.23106 23.4483 8.98106 23.4483 9.89756V21.5646Z" fill="white"/>
</g>
<defs>
<clipPath id="clip0_61_518">
<rect width="30" height="30" fill="white" transform="translate(0.94873 0.731445)"/>
</clipPath>
</defs>
</svg>
