<svg width="31" height="31" viewBox="0 0 31 31" fill="none" xmlns="http://www.w3.org/2000/svg">
<g clip-path="url(#clip0_61_516)">
<path d="M15.4483 1.33105C7.49534 1.33105 1.04834 7.77806 1.04834 15.7311C1.04834 23.6841 7.49534 30.1311 15.4483 30.1311C23.4013 30.1311 29.8483 23.6841 29.8483 15.7311C29.8483 7.77806 23.4013 1.33105 15.4483 1.33105ZM11.9233 21.6996H9.00734V12.3156H11.9233V21.6996ZM10.4473 11.1636C9.52634 11.1636 8.93084 10.5111 8.93084 9.70406C8.93084 8.88056 9.54434 8.24756 10.4848 8.24756C11.4253 8.24756 12.0013 8.88056 12.0193 9.70406C12.0193 10.5111 11.4253 11.1636 10.4473 11.1636ZM22.5733 21.6996H19.6573V16.4991C19.6573 15.2886 19.2343 14.4666 18.1798 14.4666C17.3743 14.4666 16.8958 15.0231 16.6843 15.5586C16.6063 15.7491 16.5868 16.0191 16.5868 16.2876V21.6981H13.6693V15.3081C13.6693 14.1366 13.6318 13.1571 13.5928 12.3141H16.1263L16.2598 13.6176H16.3183C16.7023 13.0056 17.6428 12.1026 19.2163 12.1026C21.1348 12.1026 22.5733 13.3881 22.5733 16.1511V21.6996Z" fill="white"/>
</g>
<defs>
<clipPath id="clip0_61_516">
<rect width="30" height="30" fill="white" transform="translate(0.44873 0.731445)"/>
</clipPath>
</defs>
</svg>
