<svg width="31" height="31" viewBox="0 0 31 31" fill="none" xmlns="http://www.w3.org/2000/svg">
<g clip-path="url(#clip0_61_514)">
<path d="M15.9483 1.33105C7.99534 1.33105 1.54834 7.77805 1.54834 15.7311C1.54834 23.6841 7.99534 30.1311 15.9483 30.1311C23.9013 30.1311 30.3483 23.6841 30.3483 15.7311C30.3483 7.77805 23.9013 1.33105 15.9483 1.33105ZM21.8058 13.1271C21.8118 13.2501 21.8133 13.3731 21.8133 13.4931C21.8133 17.2431 18.9618 21.5646 13.7448 21.5646C12.2033 21.5671 10.6938 21.1244 9.39784 20.2896C9.61834 20.3166 9.84484 20.3271 10.0743 20.3271C11.4033 20.3271 12.6258 19.8756 13.5963 19.1136C13.0049 19.1019 12.4318 18.9061 11.957 18.5533C11.4822 18.2006 11.1292 17.7084 10.9473 17.1456C11.3721 17.2263 11.8096 17.2094 12.2268 17.0961C11.5849 16.9662 11.0076 16.6184 10.5929 16.1116C10.1782 15.6047 9.9515 14.97 9.95134 14.3151V14.2806C10.3338 14.4921 10.7718 14.6211 11.2368 14.6361C10.635 14.2354 10.209 13.6201 10.0459 12.9158C9.8828 12.2114 9.99492 11.4714 10.3593 10.8471C11.0718 11.7231 11.9602 12.4397 12.9672 12.9505C13.9742 13.4614 15.0772 13.755 16.2048 13.8126C16.0615 13.204 16.1232 12.5652 16.3804 11.9953C16.6375 11.4255 17.0758 10.9565 17.6269 10.6614C18.1781 10.3664 18.8113 10.2616 19.4282 10.3636C20.045 10.4655 20.6109 10.7683 21.0378 11.2251C21.6726 11.0995 22.2813 10.8666 22.8378 10.5366C22.6263 11.1938 22.1834 11.7518 21.5913 12.1071C22.1536 12.0393 22.7026 11.8882 23.2203 11.6586C22.8401 12.2284 22.361 12.7257 21.8058 13.1271Z" fill="white"/>
</g>
<defs>
<clipPath id="clip0_61_514">
<rect width="30" height="30" fill="white" transform="translate(0.94873 0.731445)"/>
</clipPath>
</defs>
</svg>
