<svg width="61" height="61" viewBox="0 0 61 61" fill="none" xmlns="http://www.w3.org/2000/svg">
<path d="M3.46772 28.889C3.55596 30.2126 5.23243 31.5361 6.37949 32.0655C6.46773 32.1537 6.55596 32.1537 6.6442 32.242C7.08537 36.4773 8.49714 40.889 10.6148 44.4184C11.3207 45.5655 12.203 46.889 13.2618 47.6832C14.056 48.5655 14.9383 49.889 14.9383 50.3302C14.8501 50.8596 13.2618 51.8302 13.5266 52.889C13.703 53.5949 14.4971 53.9479 15.203 54.0361C16.1736 54.4773 17.4089 54.389 18.4677 54.3008C18.6442 54.3008 18.9089 54.3008 19.0854 54.2126C19.2618 54.1243 19.4383 53.9479 19.4383 53.6832C19.3501 52.889 17.9383 53.242 17.1442 53.4184C18.203 52.6243 18.556 51.4773 19.6148 49.3596C24.203 49.2714 29.2324 48.3008 39.9089 48.9184C40.9677 49.0067 41.9383 49.0067 42.9971 49.0067C43.4383 50.7714 44.4089 53.0655 46.0854 53.5067C47.056 53.9479 48.2913 53.8596 49.4383 53.7714C49.6148 53.7714 49.8795 53.7714 50.056 53.6832C50.5854 53.4184 50.4971 52.6243 49.5266 52.7126C49.1736 52.7126 48.8207 52.8008 48.4677 52.889C49.3501 51.6537 47.6736 50.0655 47.4971 49.4479C47.3207 48.742 47.5854 48.3008 47.8501 47.5067C50.3207 45.6537 51.4677 42.6537 52.4383 40.0067C53.6736 36.5655 53.7619 36.6537 54.4677 35.4184L54.9971 35.1537C55.9677 34.8008 56.9383 34.3596 57.8207 33.6537C58.7913 32.8596 59.4089 31.7126 59.4089 30.6537C59.4089 28.4479 57.3795 27.0361 55.6148 26.5067C51.203 25.0949 46.3501 26.9479 42.1148 28.0949C39.0266 28.9773 35.4089 29.8596 31.5266 30.1243C31.703 29.8596 31.6148 29.5067 31.3501 29.242L30.4677 28.5361C30.203 28.2714 29.7618 28.3596 29.4971 28.6243C29.2324 28.889 29.3207 29.3302 29.5854 29.5949L30.3795 30.2126C24.9971 30.4773 21.8207 29.4184 16.7913 27.6537C14.4971 26.8596 9.82067 25.2714 7.08537 25.2714C7.43831 25.0067 7.61478 24.4773 7.52655 24.1243C7.26184 23.5067 6.46773 23.4184 5.93831 23.6832C5.85008 23.6832 5.85008 23.7714 5.85008 23.7714C5.76184 20.0655 6.02655 16.3596 6.6442 12.6537C6.9089 10.2714 7.08537 8.24198 9.20302 7.62433C10.8795 7.44786 12.203 8.50668 13.4383 9.47727C12.2913 10.2714 11.5854 11.6832 11.4089 12.9184C11.3207 13.2714 11.4089 13.7126 11.6736 14.0655C12.1148 14.6832 12.9089 14.7714 13.703 14.7714C15.7324 14.7714 17.4089 13.9773 18.7324 12.4773C19.2618 11.8596 19.2618 10.9773 18.7324 10.4479C17.8501 9.47727 16.2618 8.68315 14.8501 8.94786C14.8501 8.85962 14.7618 8.77139 14.6736 8.68315C13.7913 7.88904 12.7324 7.09492 11.4971 6.56551C10.0854 5.94786 8.49714 6.03609 7.43831 6.74198C5.85008 7.62433 5.32067 9.47727 4.96773 11.242C4.17361 15.0361 3.9089 19.5361 3.99714 24.1243C3.9089 24.1243 3.82067 24.0361 3.6442 24.0361C3.02655 23.8596 2.23243 24.2126 2.1442 24.8302C2.05596 25.4479 2.67361 25.9773 3.29125 26.0655C3.55596 26.0655 3.82067 26.0655 3.99714 25.9773V26.242C3.37949 27.0361 3.11478 27.9184 3.46772 28.889ZM17.4089 50.6832C17.1442 51.3008 16.7913 51.9184 16.3501 52.2714C15.9089 52.6243 15.2913 52.8008 14.7618 52.5361C15.0266 52.0067 15.9971 51.389 16.1736 50.5067C16.4383 49.3596 14.7618 47.3302 14.3207 46.8008C15.2913 46.3596 17.7618 47.0655 18.556 48.2126C18.4677 48.4773 18.6442 48.1243 17.4089 50.6832ZM46.703 46.7126C46.3501 47.7714 45.9089 48.389 46.1736 49.5361C46.3501 50.3302 47.4971 51.6537 47.4089 51.9184C47.4089 51.9184 47.3207 52.0067 47.1442 52.0067C46.7913 52.0949 46.4383 52.0949 46.1736 51.9184C44.7619 51.1243 44.1442 47.7714 44.056 47.5949C44.7618 46.7126 45.7324 46.1832 46.7913 46.4479C46.7913 46.5361 46.703 46.7126 46.703 46.7126ZM51.203 39.4773C50.4971 41.5067 49.6148 43.889 47.9383 45.6537C47.1442 45.2126 46.1736 45.1243 45.1148 45.4773C44.1442 45.8302 42.9971 46.8008 42.556 47.7714C41.6736 47.7714 40.7913 47.7714 39.9089 47.6832C29.4971 47.0655 23.4971 47.9479 19.9677 48.0361C19.1736 46.3596 16.3501 45.3008 14.4971 45.5655C14.056 45.6537 13.6148 45.8302 13.2618 46.0949C12.556 45.389 12.0266 44.5949 11.6736 43.889C9.82067 40.7126 8.49714 36.8302 7.96773 33.0361C19.2618 38.0655 32.056 40.0067 44.4089 38.3302C47.1442 37.9773 49.8795 37.3596 52.4383 36.3008C51.9089 37.2714 51.556 38.3302 51.203 39.4773ZM16.3501 28.7126C23.7618 31.2714 29.1442 32.8596 42.3795 29.1537C46.4383 28.0067 51.1148 26.242 55.0854 27.5655C56.4971 28.0067 57.9089 29.0655 57.9089 30.4773C57.9089 31.1832 57.4677 31.889 56.8501 32.5067C56.1442 33.1243 55.2619 33.4773 54.4677 33.742C42.4677 38.3302 29.1442 37.9773 16.5266 34.0949C9.82067 32.0655 9.20302 31.2714 6.6442 30.2126C5.67361 29.7714 4.43831 28.8008 4.61478 27.742C4.70302 27.0361 5.4089 26.5949 6.02655 26.4184C8.23243 25.889 14.2324 28.0067 16.3501 28.7126ZM17.7618 11.4184C17.8501 11.5067 17.7618 11.5949 17.7618 11.5949C17.056 12.389 16.2618 12.9184 15.4677 13.1832C14.5854 13.4479 13.6148 13.5361 12.8207 13.3596C12.7324 13.3596 12.6442 13.2714 12.7324 13.1832C12.9971 11.7714 13.8795 10.2714 15.3795 10.2714C16.1736 10.2714 17.056 10.7126 17.7618 11.4184Z" fill="#01B289"/>
<path d="M14.9383 17.9478L14.6736 16.2714C14.5854 15.9184 14.2325 15.6537 13.8795 15.742C13.5266 15.8302 13.2619 16.1831 13.3501 16.5361L13.6148 18.2125C13.7031 18.5655 13.9678 18.742 14.2325 18.742H14.3207C14.7619 18.6537 15.0266 18.3008 14.9383 17.9478Z" fill="#01B289"/>
<path d="M15.644 24.5655C15.9969 24.4773 16.2616 24.1243 16.1734 23.7714L15.7322 21.8302C15.644 21.4773 15.2911 21.2126 14.9381 21.3008C14.5852 21.389 14.3205 21.742 14.4087 22.0949L14.7616 24.1243C14.9381 24.389 15.2911 24.6537 15.644 24.5655Z" fill="#01B289"/>
<path d="M18.2029 15.3008C18.1147 14.9479 17.6735 14.7714 17.3206 14.8596C16.9677 14.9479 16.7912 15.3891 16.8794 15.742L17.2324 16.8008C17.3206 17.0655 17.5853 17.242 17.85 17.242H18.1147C18.4677 17.1538 18.6441 16.7126 18.5559 16.3596L18.2029 15.3008Z" fill="#01B289"/>
<path d="M19.262 22.4478C19.3502 22.7125 19.6149 22.8008 19.8796 22.8008C19.9679 22.8008 20.0561 22.8008 20.1443 22.7125C20.4973 22.5361 20.5855 22.1831 20.4973 21.8302L19.7032 20.2419C19.5267 19.889 19.1737 19.8008 18.8208 19.889C18.4679 20.0655 18.3796 20.4184 18.4679 20.7714L19.262 22.4478Z" fill="#01B289"/>
<path d="M21.5562 28.3596C21.7327 28.7125 22.0856 28.8008 22.4385 28.6243C22.7915 28.4478 22.8797 28.0949 22.7032 27.742L21.9091 26.1537C21.7327 25.8008 21.3797 25.7125 21.0268 25.889C20.6738 26.0655 20.5856 26.4184 20.7621 26.7714L21.5562 28.3596Z" fill="#01B289"/>
<path d="M21.6441 16.3597C21.8206 16.3597 21.9088 16.2714 22.0853 16.1832C22.35 15.9185 22.4382 15.5656 22.1735 15.2126L20.85 13.5361C20.5853 13.2714 20.2324 13.1832 19.8794 13.4479C19.6147 13.7126 19.5265 14.0656 19.7912 14.4185L21.1147 16.095C21.2912 16.3597 21.4676 16.3597 21.6441 16.3597Z" fill="#01B289"/>
<path d="M23.1443 18.5655C22.8796 18.742 22.7913 19.1832 22.9678 19.4479L23.7619 20.5949C23.8501 20.7714 24.1148 20.8596 24.2913 20.8596C24.4678 20.8596 24.556 20.8597 24.6443 20.7714C24.909 20.5949 24.9972 20.1538 24.8207 19.8891L24.0266 18.742C23.8501 18.3891 23.409 18.3008 23.1443 18.5655Z" fill="#01B289"/>
<path d="M26.2322 24.4772C25.9675 24.7419 25.9675 25.1831 26.2322 25.4478L27.3793 26.5066C27.4675 26.5949 27.644 26.6831 27.8205 26.6831C27.9969 26.6831 28.1734 26.5949 28.2616 26.5066C28.5263 26.2419 28.5263 25.8007 28.2616 25.536L27.2028 24.4772C26.9381 24.2125 26.4969 24.2125 26.2322 24.4772Z" fill="#01B289"/>
<path d="M12.2029 36.2125C12.1147 35.8596 11.85 35.5949 11.4088 35.6831C11.0559 35.7714 10.7912 36.0361 10.8794 36.389C11.2323 38.7714 12.2029 41.0655 13.6147 43.0066C13.7029 43.1831 13.9676 43.2714 14.1441 43.2714C14.3206 43.2714 14.4088 43.2714 14.4971 43.0949C14.7618 42.9184 14.85 42.4772 14.5853 42.2125C13.35 40.4478 12.4676 38.3302 12.2029 36.2125Z" fill="#01B289"/>
</svg>
