<svg width="61" height="61" viewBox="0 0 61 61" fill="none" xmlns="http://www.w3.org/2000/svg">
<path d="M54.1234 28.9668C54.1695 26.1268 54.4245 12.7591 54.3901 10.5641C54.3417 9.43104 53.871 8.30884 53.0785 7.48753C52.2956 6.65823 51.2043 6.11896 50.0603 6.00284L49.6313 5.97807L49.2847 5.97374C49.1387 5.97238 47.1273 5.95366 47.2393 5.9547L41.7848 5.9316L30.8758 5.89917L19.9669 5.93266L14.5124 5.9577C14.3663 5.95905 12.355 5.97764 12.467 5.97663L12.1204 5.98087L11.6917 6.00564C10.5483 6.12169 9.45754 6.66056 8.67518 7.48939C7.88297 8.31017 7.41249 9.43171 7.36408 10.5642C7.32994 12.7386 7.5803 25.8296 7.63095 28.9392C5.96029 29.4465 4.54918 30.7641 4.02237 32.4322C3.85631 32.9584 3.75237 33.5078 3.75244 34.0582L3.75997 35.4397L3.79066 38.1671C3.88061 44.3412 3.85911 42.8651 3.95 49.1038L3.95013 49.1092C3.95892 49.5113 4.29204 49.8301 4.69414 49.8213C5.78251 49.7974 6.87103 49.7772 7.95941 49.7559C7.93876 50.2607 7.91619 50.7654 7.9076 51.2701L7.89382 52.3675C7.90634 52.5642 7.856 52.6505 7.9353 53.1459C8.02006 53.5448 8.23167 53.9144 8.53229 54.1843C8.82866 54.4582 9.21704 54.6364 9.61914 54.6862C9.70803 54.6997 9.84526 54.7021 9.89466 54.7023L10.0318 54.7012L10.3062 54.6991L11.4035 54.6771C12.1351 54.6681 12.8666 54.62 13.5982 54.5906C14.8827 54.5435 15.3521 54.4884 16.8902 54.375L17.1645 54.3501C17.2462 54.3388 17.3401 54.3376 17.5284 54.3073C18.1782 54.1849 18.6731 53.6733 18.7708 53.0392C18.8101 52.696 18.76 52.5377 18.7416 52.3301L18.5781 51.1551L18.2943 49.5167C21.7863 49.4088 27.3361 49.2929 32.5021 49.0769C27.8674 48.8831 23.2327 48.7799 18.5981 48.6446C17.2498 48.6019 15.9015 48.5756 14.5532 48.544C14.3172 48.5152 14.096 48.4807 13.8554 48.4544C12.2901 48.2734 10.6353 48.1382 8.97847 48.0797C8.6855 48.0696 8.42722 48.2009 8.24372 48.4035C7.31214 48.3854 6.3807 48.3673 5.44913 48.3476C5.46542 47.2064 5.39011 52.4816 5.60846 37.1868C9.66728 37.5816 13.7261 37.805 17.7849 37.9536C22.1485 38.1271 26.5122 38.1735 30.8758 38.1926C35.2395 38.1708 39.6031 38.1244 43.9667 37.9504C48.0391 37.8006 52.1115 37.5776 56.1839 37.1825C56.4319 52.5707 56.3463 47.2633 56.3648 48.4115C54.0351 48.4559 51.7052 48.5199 49.3754 48.5782C49.0519 48.5373 48.7435 48.4908 48.4109 48.4544C46.8456 48.2734 45.1909 48.1382 43.5339 48.0797C43.0979 48.0646 42.7325 48.3512 42.6037 48.7495C39.2365 48.8429 35.8693 48.936 32.5021 49.0769C35.8437 49.2167 39.1853 49.3093 42.527 49.4021C42.4974 50.0248 42.4737 50.6475 42.4631 51.2701L42.4493 52.3675C42.4619 52.5642 42.4115 52.6505 42.4908 53.1459C42.6701 53.9897 43.3722 54.5868 44.1747 54.6862C44.2635 54.6997 44.4008 54.7021 44.4502 54.7023L44.5874 54.7012L44.8617 54.6991L45.959 54.6771C46.6905 54.6681 47.4221 54.62 48.1536 54.5906C49.4408 54.5434 49.9248 54.4871 51.4456 54.375L51.7199 54.3501C51.8017 54.3388 51.8955 54.3376 52.0838 54.3073C52.735 54.1847 53.2286 53.672 53.3263 53.0392C53.3656 52.696 53.3154 52.5377 53.2971 52.3301L53.1335 51.1551L52.8744 49.6591C54.2688 49.6891 55.6632 49.7328 57.0576 49.7589H57.0592C57.4288 49.7649 57.7333 49.4702 57.7393 49.1005C58.0472 30.1683 57.8663 41.2338 57.957 35.4397L57.9725 34.0587C57.9736 33.5109 57.8694 32.9642 57.7045 32.4405C57.1813 30.7838 55.7817 29.474 54.1234 28.9668ZM9.16164 18.7982L9.23855 13.3437C9.25113 12.4581 9.24607 11.4729 9.27317 10.6692C9.31632 9.98768 9.60616 9.3295 10.0895 8.8499C10.567 8.3659 11.2112 8.06647 11.8796 8.00981L12.1319 8.00016L12.467 8.00222L13.1488 8.00855L14.5124 8.02113L19.9669 8.0461L30.8758 8.07966L41.7848 8.04723L47.2393 8.02413C47.3854 8.02276 49.3967 8.00397 49.2847 8.00502L49.6198 8.00295L49.8718 8.01261C51.2277 8.1274 52.3838 9.21617 52.4761 10.6693C52.5032 11.4728 52.4982 12.4582 52.5108 13.3437L52.5867 18.7982L52.7603 28.735C48.2884 28.6365 22.2057 28.5639 9.03587 28.7047C9.02002 28.7049 9.00464 28.7089 8.98879 28.7093L9.16164 18.7982ZM9.89666 52.5349C9.89626 52.5349 9.89706 52.5349 9.89666 52.5349L9.89466 52.5353C9.85285 52.533 9.89666 52.5349 9.89666 52.5349ZM17.8577 51.3849L17.6942 52.4046C17.6529 52.8218 17.6078 52.847 17.4913 52.9074C17.4405 52.9298 17.3887 52.9275 17.3485 52.9137C17.3552 52.906 17.2654 52.8978 17.1645 52.8874L16.8902 52.8626L15.7928 52.7795C15.0612 52.7165 14.3297 52.6738 13.5982 52.6469C12.8666 52.6176 12.1351 52.5695 11.4035 52.5604L10.3062 52.5385L10.0647 52.5366C10.0418 50.6309 10.0515 51.2587 10.0058 50.0034C11.0928 49.9323 12.1888 49.8341 13.3409 49.6964L13.892 49.6262C15.3125 49.5942 16.7328 49.5636 18.1532 49.5202C18.0592 50.1835 17.9538 50.8126 17.8577 51.3849ZM43.9667 36.2543C39.6031 36.0802 35.2395 36.0338 30.8758 36.012C26.5122 36.0311 22.1485 36.0776 17.7849 36.251C13.7267 36.3997 9.66855 36.6229 5.61033 37.0177C5.61163 36.9057 5.64639 33.907 5.64422 34.0939C5.64875 33.7333 5.72752 33.3815 5.83805 33.0442C6.29761 31.6847 7.65965 30.7056 9.07728 30.7162L30.8758 30.7925L52.675 30.6903C54.1033 30.6797 55.4755 31.666 55.9386 33.0358C56.0502 33.3756 56.1287 33.7301 56.1343 34.0934L56.1584 35.4397L56.1815 37.0219C52.1099 36.627 48.0383 36.404 43.9667 36.2543ZM44.4522 52.5349C44.4518 52.5349 44.4526 52.5349 44.4522 52.5349L44.4502 52.5353C44.4084 52.533 44.4522 52.5349 44.4522 52.5349ZM52.4132 51.3849L52.2496 52.4046C52.2084 52.8218 52.1633 52.847 52.0467 52.9074C51.996 52.9298 51.9441 52.9275 51.9039 52.9137C51.9107 52.906 51.8209 52.8978 51.7199 52.8874L51.4456 52.8626C50.007 52.7565 49.4632 52.695 48.1536 52.6469C47.4221 52.6176 46.6905 52.5695 45.959 52.5604L44.8617 52.5385L44.6202 52.5366C44.5973 50.6294 44.6067 51.2516 44.5613 50.0034C45.6483 49.9323 46.7443 49.8341 47.8964 49.6964L48.9291 49.5649C50.1825 49.5969 51.4358 49.6274 52.6891 49.6546C52.5997 50.2666 52.5027 50.8517 52.4132 51.3849Z" fill="#01B289"/>
<path d="M18.2229 21.7968C18.9774 22.7049 19.7023 23.6351 20.49 24.5184L20.5792 24.6189C20.933 25.0111 21.5613 24.9594 21.8473 24.5184C22.9596 22.8027 24.0193 21.0476 24.9686 19.2097C25.7313 20.3594 26.5352 21.4781 27.3171 22.6134L30.0033 26.2933C30.4466 26.8943 31.3241 26.8761 31.7483 26.2933C32.6421 25.0654 33.55 23.8482 34.4321 22.6116C35.2154 21.4771 36.0177 20.357 36.7806 19.2073C37.7288 21.0474 38.7883 22.8041 39.9017 24.5203C40.1974 24.9706 40.8272 25.0098 41.1767 24.6184L41.2643 24.5203C42.0526 23.6376 42.7752 22.7056 43.531 21.7986C44.2632 20.8737 44.9769 19.9351 45.6982 19.0022C45.9884 18.6268 46.003 18.0862 45.6982 17.6943C44.9742 16.7634 44.2643 15.8219 43.5287 14.8998C42.7742 13.9917 42.0492 13.0615 41.2616 12.1782L41.1723 12.0778C40.8205 11.6873 40.1914 11.7354 39.9043 12.1782C38.7826 13.9084 37.7145 15.6786 36.759 17.5334C34.8897 15.3059 32.9624 13.1217 30.8758 11.057C32.2276 13.5578 33.73 15.9458 35.2885 18.2916C34.4375 19.3077 33.6186 20.348 32.7837 21.3762C32.1393 22.1951 31.5094 23.0248 30.8764 23.8524L28.9703 21.3744C28.1346 20.3477 27.3177 19.3069 26.467 18.2915C28.0254 15.9465 29.5263 13.5586 30.8758 11.057C28.7877 13.1196 26.86 15.3024 24.9915 17.5295C24.0381 15.6747 22.9713 13.9051 21.8499 12.1763C21.5546 11.7266 20.9249 11.6863 20.5749 12.0782L20.4874 12.1763C19.699 13.059 18.9763 13.9909 18.2205 14.898C17.4884 15.8228 16.7746 16.7614 16.0532 17.6943C15.763 18.0697 15.7485 18.6103 16.0532 19.0022C16.7773 19.9331 17.4872 20.8746 18.2229 21.7968ZM40.4867 14.0782C40.9468 14.7672 41.4173 15.4483 41.8802 16.1352C42.4039 16.8799 42.9442 17.6122 43.4802 18.3477C42.9436 19.0831 42.4044 19.8167 41.8778 20.5596C41.4166 21.2461 40.9463 21.9256 40.4865 22.6131C39.3681 21.3463 38.2043 20.1135 36.9631 18.9387C36.9811 18.9111 37.0005 18.8845 37.0185 18.8569L37.0747 18.7709C37.2576 18.4895 37.245 18.1107 37.0185 17.8396C36.9975 17.8145 36.9759 17.7897 36.9549 17.7645C38.1987 16.5856 39.365 15.3487 40.4867 14.0782ZM21.2651 14.0835C22.3851 15.3521 23.5504 16.5867 24.7937 17.7629C24.7728 17.7879 24.7513 17.8126 24.7303 17.8376C24.5147 18.0964 24.4813 18.4758 24.6745 18.7729L24.7303 18.8589C24.7485 18.8869 24.7683 18.9137 24.7865 18.9416C23.5465 20.1177 22.3834 21.3513 21.2649 22.6183C20.8048 21.9294 20.3342 21.2483 19.8713 20.5614C19.3476 19.8166 18.8074 19.0843 18.2713 18.3489C18.8079 17.6134 19.3471 16.8799 19.8737 16.137C20.3349 15.4505 20.8053 14.7711 21.2651 14.0835Z" fill="#01B289"/>
</svg>
