<svg width="64" height="64" viewBox="0 0 64 64" fill="none" xmlns="http://www.w3.org/2000/svg">
<path d="M62.125 20.75H47.125C46.0895 20.75 45.25 21.5895 45.25 22.625V33.875C45.25 38.4024 48.476 42.1903 52.75 43.0614V54.5H45.25V52.625C45.25 41.8806 36.9411 33.0304 26.375 32.0851V30.125C26.375 29.0895 25.5355 28.25 24.5 28.25C23.4645 28.25 22.625 29.0895 22.625 30.125V32.0851C12.0589 33.0304 3.75 41.8806 3.75 52.625V54.5H1.875C0.8395 54.5 0 55.3395 0 56.375C0 57.4105 0.8395 58.25 1.875 58.25H62.125C63.1605 58.25 64 57.4105 64 56.375C64 55.3395 63.1605 54.5 62.125 54.5H56.5V43.0614C60.774 42.1904 64 38.4025 64 33.875V22.625C64 21.5895 63.1605 20.75 62.125 20.75ZM7.5 52.625C7.5 43.3201 15.1261 35.75 24.5 35.75C33.8739 35.75 41.5 43.3201 41.5 52.625V54.5H7.5V52.625ZM60.25 33.875C60.25 36.9766 57.7266 39.5 54.625 39.5C51.5234 39.5 49 36.9766 49 33.875V24.5H60.25V33.875Z" fill="#39505E"/>
<path d="M35.875 20.75H20.75C17.6484 20.75 15.125 23.2734 15.125 26.375C15.125 27.4105 15.9645 28.25 17 28.25C18.0355 28.25 18.875 27.4105 18.875 26.375C18.875 25.3411 19.7161 24.5 20.75 24.5H35.875C38.9766 24.5 41.5 21.9766 41.5 18.875C41.5 15.7734 38.9766 13.25 35.875 13.25H28.25C27.2161 13.25 26.375 12.4089 26.375 11.375V7.625C26.375 6.5895 25.5355 5.75 24.5 5.75C23.4645 5.75 22.625 6.5895 22.625 7.625V11.375C22.625 14.4766 25.1484 17 28.25 17H35.875C36.9089 17 37.75 17.8411 37.75 18.875C37.75 19.9089 36.9089 20.75 35.875 20.75Z" fill="#39505E"/>
</svg>
