<svg width="61" height="61" viewBox="0 0 61 61" fill="none" xmlns="http://www.w3.org/2000/svg">
<path d="M58.2116 14.3386C58.2116 13.2065 57.7587 12.1876 56.9663 11.3952C56.1738 10.6027 55.155 10.1499 54.1361 10.0367L42.8153 10.2631C39.0795 10.3763 35.3436 10.4895 31.4946 10.6027C38.9663 10.8291 46.5512 10.9423 54.0229 11.1687C55.6078 11.282 56.9663 12.7536 56.8531 14.3386C56.6267 34.0367 56.5135 37.6593 56.5135 42.5272V45.3574C56.5135 45.9235 56.5135 46.1499 56.4003 46.4895C56.1738 47.5084 55.2682 48.3008 54.2493 48.5272C54.1361 48.5272 53.9097 48.5272 53.6833 48.5272C49.3814 48.7536 69.872 48.5272 6.58892 48.5272C5.23043 48.414 3.98515 47.1687 3.98515 45.8102C3.87194 32.4518 3.98515 42.6404 3.64553 14.7914C3.64553 12.6404 4.66439 11.5084 6.13609 11.1687C6.70213 11.0555 7.15496 11.0555 7.60779 11.0555H8.96628C16.5512 10.8291 24.0229 10.7159 31.4946 10.4895C25.6078 10.2631 11.9097 10.0367 7.60779 9.92346C7.15496 9.92346 6.58892 9.92346 6.02289 10.0367C4.09836 10.3763 2.51345 12.0744 2.51345 14.7914C2.17383 42.6404 2.28704 32.2253 2.17383 45.8102C2.17383 46.9423 2.62666 48.1876 3.41911 49.0933C4.21156 49.9989 5.34364 50.565 6.58892 50.6782C35.2304 50.6782 5.68326 50.9046 53.1172 50.6782H53.7965C54.1361 50.6782 54.3625 50.6782 54.7021 50.565C56.5135 50.2253 57.872 48.7536 58.3248 47.0555C58.438 46.4895 58.438 45.8102 58.438 45.4706C58.438 35.6216 58.6644 47.6216 58.2116 14.3386Z" fill="#01B289"/>
<path d="M11.6832 34.7159C11.57 32.3385 11.2304 29.8479 10.7776 27.4706C10.3248 29.8479 10.0983 32.3385 9.87192 34.7159C9.64551 37.0932 9.64551 39.5838 9.64551 41.9612C9.64551 42.5272 10.2115 43.0932 10.7776 43.0932C13.1549 43.0932 15.6455 42.98 18.0229 42.8668C20.4002 42.7536 22.8908 42.414 25.2682 41.9612C22.8908 41.5083 20.4002 41.2819 18.0229 41.0555C15.9851 40.9423 13.9474 40.8291 11.9097 40.8291C11.9097 38.7913 11.9097 36.7536 11.6832 34.7159Z" fill="#01B289"/>
<path d="M10.7776 25.2064C11.2304 24.98 11.4568 24.7536 11.6832 24.414C11.7965 24.1876 11.9097 23.9611 11.9097 23.6215C11.9097 23.3951 11.7965 23.1687 11.6832 22.8291C11.4568 22.6027 11.2304 22.3762 10.7776 22.0366C10.3248 22.263 10.0983 22.4894 9.87192 22.8291C9.75872 23.0555 9.64551 23.2819 9.64551 23.6215C9.64551 23.8479 9.75872 24.0744 9.87192 24.414C10.0983 24.7536 10.3248 24.98 10.7776 25.2064Z" fill="#01B289"/>
<path d="M48.8155 19.2065C48.8155 21.2443 48.9287 23.282 49.0419 25.3197C49.1551 27.6971 49.4948 30.1877 49.9476 32.565C50.4004 30.1877 50.6268 27.6971 50.8533 25.3197C51.0797 22.9424 51.0797 20.4518 51.0797 18.0745C51.0797 17.5084 50.5136 16.9424 49.9476 16.9424C47.5702 16.9424 45.0797 17.0556 42.7023 17.1688C40.325 17.282 37.8344 17.6216 35.457 18.0745C37.8344 18.5273 40.325 18.7537 42.7023 18.9801C44.7401 19.2065 46.7778 19.2065 48.8155 19.2065Z" fill="#01B289"/>
<path d="M49.9475 34.8291C49.4947 35.0555 49.2682 35.2819 49.0418 35.6216C48.7022 36.0744 48.7022 36.6404 49.0418 37.0933C49.2682 37.3197 49.4947 37.5461 49.9475 37.8857C50.4003 37.6593 50.6267 37.4329 50.8531 37.0933C51.1928 36.6404 51.1928 36.0744 50.8531 35.6216C50.6267 35.3951 50.4003 35.0555 49.9475 34.8291Z" fill="#01B289"/>
</svg>
