<svg width="64" height="64" viewBox="0 0 64 64" fill="none" xmlns="http://www.w3.org/2000/svg">
<path d="M21.875 33.575H42.125C43.0569 33.575 43.8125 32.8194 43.8125 31.8875V11.6375C43.8125 10.7055 43.0569 9.94995 42.125 9.94995H21.875C20.943 9.94995 20.1875 10.7055 20.1875 11.6375V31.8875C20.1875 32.8194 20.943 33.575 21.875 33.575ZM40.4375 23.45H33.6875V20.075H40.4375V23.45ZM30.3125 23.45H23.5625V20.075H30.3125V23.45ZM23.5625 26.825H30.3125V30.2H23.5625V26.825ZM33.6875 30.2V26.825H40.4375V30.2H33.6875ZM40.4375 16.7H33.6875V13.325H40.4375V16.7ZM30.3125 13.325V16.7H23.5625V13.325H30.3125Z" fill="#39505E"/>
<path d="M53.7261 50.8944C53.2731 49.3583 52.0958 48.0499 50.5625 47.487V4.88745C50.5625 3.9555 49.8069 3.19995 48.875 3.19995H15.125C14.193 3.19995 13.4375 3.9555 13.4375 4.88745V47.487C11.9038 48.05 10.7268 49.3587 10.2739 50.8944C8.20006 51.5276 6.6875 53.4592 6.6875 55.7375C6.6875 58.5289 8.95854 60.8 11.75 60.8H52.25C55.0415 60.8 57.3125 58.5289 57.3125 55.7375C57.3125 53.4592 55.7999 51.5276 53.7261 50.8944ZM47.1875 6.57495V47.487C45.7559 48.0125 44.6026 49.2026 44.0959 50.675H40.4375V38.6375C40.4375 37.7055 39.6819 36.95 38.75 36.95H25.25C24.3181 36.95 23.5625 37.7055 23.5625 38.6375V50.675H19.9041C19.3979 49.204 18.2455 48.0131 16.8125 47.487V6.57495H47.1875ZM37.0625 40.325V50.675H33.6875V40.325H37.0625ZM30.3125 50.675H26.9375V40.325H30.3125V50.675ZM40.7275 54.05C40.5402 54.5781 40.4375 55.1459 40.4375 55.7375C40.4375 56.329 40.5404 56.8968 40.7277 57.425H23.2722C23.4596 56.8968 23.5625 56.329 23.5625 55.7375C23.5625 55.1459 23.4598 54.5781 23.2725 54.05H40.7275ZM10.0625 55.7375C10.0625 54.807 10.8195 54.05 11.75 54.05C12.682 54.05 13.4375 53.2944 13.4375 52.3625C13.4375 51.4036 14.226 50.5625 15.125 50.5625C16.024 50.5625 16.8125 51.4036 16.8125 52.3625C16.8125 53.2944 17.568 54.05 18.5 54.05C19.4305 54.05 20.1875 54.807 20.1875 55.7375C20.1875 56.6679 19.4305 57.425 18.5 57.425H11.75C10.8195 57.425 10.0625 56.6679 10.0625 55.7375ZM52.25 57.425H45.5C44.5695 57.425 43.8125 56.6679 43.8125 55.7375C43.8125 54.807 44.5695 54.05 45.5 54.05C46.4319 54.05 47.1875 53.2944 47.1875 52.3625C47.1875 51.4036 47.976 50.5625 48.875 50.5625C49.774 50.5625 50.5625 51.4036 50.5625 52.3625C50.5625 53.2944 51.3181 54.05 52.25 54.05C53.1805 54.05 53.9375 54.807 53.9375 55.7375C53.9375 56.6679 53.1805 57.425 52.25 57.425Z" fill="#39505E"/>
</svg>
