<svg width="64" height="64" viewBox="0 0 64 64" fill="none" xmlns="http://www.w3.org/2000/svg">
<g clip-path="url(#clip0_100_2230)">
<path d="M26.3751 40.0596C21.476 41.4391 17.2285 44.6002 14.4849 49.0177C12.3172 48.4523 9.93161 48.7277 7.97651 49.845C6.52628 50.6737 4.72468 50.6736 3.27457 49.845C3.07895 49.7332 2.87658 49.628 2.67308 49.5324C1.7361 49.0921 0.619111 49.4946 0.178617 50.4317C-0.261877 51.369 0.140742 52.4857 1.07798 52.9262C1.1916 52.9796 1.3046 53.0383 1.41397 53.1008C4.01156 54.5852 7.23927 54.5852 9.83686 53.1008C11.303 52.263 13.1977 52.263 14.6638 53.1008C17.2614 54.5852 20.4891 54.5852 23.0867 53.1008C24.5369 52.2722 26.3385 52.2722 27.7886 53.1008C30.3862 54.5852 33.6139 54.5852 36.2115 53.1008C37.6617 52.2722 39.4633 52.2722 40.9134 53.1008C42.2123 53.8431 43.6686 54.214 45.1249 54.214C46.5811 54.214 48.0375 53.8429 49.3363 53.1008C50.7865 52.2722 52.5881 52.2722 54.0383 53.1008C56.6346 54.5844 59.9898 54.5844 62.5861 53.1008C62.6955 53.0383 62.8085 52.9796 62.9221 52.9262C63.8594 52.4857 64.262 51.369 63.8215 50.4317C63.3811 49.4945 62.2643 49.0921 61.327 49.5324C61.1235 49.628 60.9212 49.7332 60.7255 49.845C59.2594 50.6828 57.3647 50.6828 55.8986 49.845C53.9473 48.7299 51.6404 48.4526 49.5121 49.0129C46.8765 44.7718 42.8542 41.6907 38.2001 40.2322C39.2211 35.3453 41.5874 30.762 44.9869 27.1024L46.207 27.3464C47.7318 27.6514 48.9112 28.722 49.3618 30.2103C49.8124 31.6986 49.4249 33.2436 48.3255 34.3431C47.5932 35.0753 47.5932 36.2624 48.3255 36.9947C49.0576 37.7268 50.2448 37.7269 50.977 36.9947C53.0711 34.9006 53.8091 31.958 52.9509 29.1235C52.4873 27.5922 51.6179 26.2937 50.4592 25.3312C53.4336 25.3902 55.7496 27.8745 55.7496 30.7235V33.0172C55.7496 34.0527 56.5891 34.8922 57.6246 34.8922C58.6601 34.8922 59.4996 34.0527 59.4996 33.0172V30.7235C59.4996 25.8554 55.549 21.6457 50.4844 21.5776L53.6286 18.4333C54.3609 17.701 54.3609 16.5139 53.6286 15.7817C52.8965 15.0495 51.7093 15.0495 50.977 15.7817L47.8316 18.9272C47.7633 13.8397 43.5349 9.9109 38.6868 9.9109H36.3931C35.3576 9.9109 34.5181 10.7504 34.5181 11.7859C34.5181 12.8214 35.3576 13.6609 36.3931 13.6609H38.6868C41.5335 13.6609 44.0201 15.9742 44.0791 18.9512C43.1166 17.7924 41.8182 16.9231 40.2868 16.4594C37.4522 15.6012 34.5099 16.3391 32.4157 18.4333C31.6834 19.1655 31.6834 20.3526 32.4157 21.0849C33.1478 21.8171 34.335 21.8171 35.0673 21.0849C36.1669 19.9854 37.7121 19.5979 39.2001 20.0485C40.6883 20.4991 41.759 21.6785 42.0639 23.2033L42.3165 24.4665C38.419 28.632 35.7055 33.8627 34.5346 39.4426C33.7007 39.3406 32.855 39.2855 31.9997 39.2855C31.3692 39.2855 30.7441 39.3168 30.1247 39.3725V38.3204C30.1247 30.4805 27.1734 22.8212 21.6827 16.9672L21.9353 15.7036C22.5857 12.4516 26.5883 11.2414 28.9321 13.5851C29.6642 14.3173 30.8513 14.3173 31.5837 13.5851C32.3159 12.8529 32.3159 11.6658 31.5837 10.9335C28.0664 7.41606 22.6696 8.14143 19.9202 11.4515C19.9827 8.29905 22.8111 6.03608 25.3125 6.03608H27.6062C28.6417 6.03608 29.4812 5.19659 29.4812 4.16111C29.4812 3.12562 28.6417 2.28613 27.6062 2.28613H25.3125C20.8153 2.28613 16.2384 6.15445 16.1678 11.4274L13.0223 8.28193C12.2902 7.54969 11.103 7.54969 10.3707 8.28193C9.63849 9.01417 9.63849 10.2013 10.3707 10.9335L13.5149 14.0778C8.44938 14.1463 4.49981 18.3564 4.49981 23.2237V25.5174C4.49981 26.5529 5.3393 27.3924 6.37478 27.3924C7.41027 27.3924 8.24976 26.5529 8.24976 25.5174V23.2237C8.24976 20.3765 10.5637 17.8904 13.5402 17.8314C12.3814 18.7939 11.5121 20.0924 11.0485 21.6237C10.1902 24.4582 10.9281 27.4008 13.0223 29.4949C13.7544 30.227 14.9417 30.2271 15.6739 29.4949C16.4061 28.7626 16.4061 27.5755 15.6739 26.8433C14.5744 25.7438 14.1869 24.1988 14.6375 22.7105C15.0882 21.2222 16.2676 20.1515 17.7924 19.8466L19.0122 19.6026C23.7665 24.7038 26.3746 31.3114 26.3746 38.3206V40.0596H26.3751ZM1.07798 60.4261C1.1916 60.4795 1.3046 60.5382 1.41397 60.6007C4.01156 62.0851 7.23927 62.0851 9.83686 60.6007C11.303 59.7628 13.1977 59.7628 14.6638 60.6007C17.2614 62.0851 20.4891 62.0851 23.0867 60.6007C24.5369 59.7721 26.3385 59.7721 27.7886 60.6007C30.3862 62.0851 33.6139 62.0851 36.2115 60.6007C37.6617 59.7721 39.4633 59.7721 40.9134 60.6007C42.2123 61.343 43.6686 61.7139 45.1249 61.7139C46.5811 61.7139 48.0375 61.3428 49.3363 60.6007C50.7865 59.7721 52.5881 59.7721 54.0383 60.6007C56.6346 62.0843 59.9898 62.0843 62.5861 60.6007C62.6955 60.5382 62.8085 60.4795 62.9221 60.4261C63.8594 59.9856 64.262 58.8689 63.8215 57.9316C63.3811 56.9944 62.2643 56.592 61.327 57.0323C61.1235 57.1279 60.9212 57.2331 60.7255 57.3449C59.2594 58.1827 57.3647 58.1827 55.8986 57.3449C53.301 55.8605 50.0733 55.8605 47.4757 57.3449C46.0255 58.1735 44.2239 58.1735 42.7738 57.3449C40.1762 55.8605 36.9485 55.8605 34.3509 57.3449C32.9007 58.1735 31.0991 58.1735 29.649 57.3449C27.0514 55.8605 23.8237 55.8605 21.2261 57.3449C19.7758 58.1735 17.9742 58.1735 16.5241 57.3449C13.9278 55.8613 10.5726 55.8613 7.97626 57.3449C6.52603 58.1736 4.72443 58.1735 3.27432 57.3449C3.0787 57.2331 2.87633 57.1279 2.67283 57.0323C1.73585 56.5919 0.618861 56.9944 0.178367 57.9316C-0.261877 58.8689 0.140867 59.9856 1.07798 60.4261ZM45.9381 50.3946C44.8661 50.5798 43.7419 50.398 42.7739 49.845C40.1763 48.3606 36.9486 48.3606 34.351 49.845C32.9008 50.6736 31.0992 50.6736 29.6491 49.845C27.0515 48.3606 23.8238 48.3606 21.2262 49.845C20.2583 50.3981 19.1341 50.5798 18.062 50.3946C21.1857 45.8104 26.3566 43.0354 32.0001 43.0354C37.6435 43.0354 42.8144 45.8104 45.9381 50.3946Z" fill="#39505E"/>
</g>
<defs>
<clipPath id="clip0_100_2230">
<rect width="64" height="64" fill="white"/>
</clipPath>
</defs>
</svg>
