<svg width="132" height="101" viewBox="0 0 132 101" fill="none" xmlns="http://www.w3.org/2000/svg">
<circle cx="81.7168" cy="50.4297" r="50" fill="#00C195" fill-opacity="0.2"/>
<g clip-path="url(#clip0_221_17)">
<path d="M14.4257 27.8413C6.5996 27.8413 0.233398 34.2075 0.233398 42.0337C0.233398 49.5835 6.1582 55.7758 13.6025 56.2036C13.7314 57.5952 13.6347 61.3833 10.0048 66.6528C9.7304 67.0503 9.7802 67.5864 10.121 67.9272C11.6064 69.4126 12.5244 70.3481 13.1669 71.0024C14.0078 71.8579 14.3916 72.2485 14.9531 72.7583C15.1435 72.9311 15.3837 73.018 15.625 73.018C15.8593 73.018 16.0927 72.936 16.2812 72.7729C22.6064 67.269 29.6328 55.8969 28.6162 41.9614C28.0205 33.7798 22.0527 27.8413 14.4257 27.8413ZM15.6347 70.6518C15.3623 70.3833 15.0517 70.0669 14.5937 69.601C14.0371 69.0337 13.2734 68.2563 12.1152 67.0942C16.5205 60.3061 15.6884 55.4712 15.3242 54.7778C15.1513 54.4487 14.7968 54.227 14.4257 54.227C7.7031 54.227 2.2334 48.7573 2.2334 42.0337C2.2334 35.311 7.7031 29.8413 14.4257 29.8413C20.9746 29.8413 26.1035 34.9995 26.622 42.1059C27.7646 57.7798 18.4492 67.9565 15.6347 70.6518Z" fill="white"/>
<path d="M64.1328 41.9614C63.5351 33.7808 57.5664 27.8413 49.9414 27.8413C42.1152 27.8413 35.748 34.2075 35.748 42.0337C35.748 49.5835 41.6738 55.7758 49.1191 56.2036C49.248 57.5942 49.1503 61.3803 45.5195 66.6528C45.2451 67.0503 45.2949 67.5864 45.6357 67.9272C47.1152 69.4067 48.0312 70.3403 48.6738 70.9936C49.5185 71.8549 49.9043 72.2475 50.4687 72.7592C50.6591 72.9311 50.9003 73.018 51.1406 73.018C51.375 73.018 51.6084 72.936 51.7968 72.7719C58.122 67.268 65.1484 55.896 64.1328 41.9614ZM51.1503 70.6518C50.8759 70.3813 50.5625 70.063 50.1005 69.5923C49.5439 69.0258 48.7832 68.2505 47.6298 67.0942C52.0351 60.3051 51.2041 55.4712 50.8408 54.7778C50.6679 54.4497 50.3125 54.227 49.9414 54.227C43.2177 54.227 37.748 48.7573 37.748 42.0337C37.748 35.311 43.2177 29.8413 49.9414 29.8413C56.4892 29.8413 61.6191 34.9995 62.1386 42.1069C63.2802 57.7788 53.9648 67.9565 51.1503 70.6518Z" fill="white"/>
</g>
<defs>
<clipPath id="clip0_221_17">
<rect width="64" height="64" fill="white" transform="translate(0.232422 18.4297)"/>
</clipPath>
</defs>
</svg>
